<svg xmlns="http://www.w3.org/2000/svg">
<symbol id="arrow-down" viewBox="0 0 24 24" fill="none" stroke="currentColor" stroke-width="1.5" stroke-linecap="square" stroke-linejoin="miter"><path d="M12 4v16m-6-6 6 6 6-6"/></symbol>
<symbol id="arrow-left" viewBox="0 0 24 24" fill="none" stroke="currentColor" stroke-width="1.5" stroke-linecap="square" stroke-linejoin="miter"><path d="M20 12H4m6-6-6 6 6 6"/></symbol>
<symbol id="arrow-right" viewBox="0 0 24 24" fill="none" stroke="currentColor" stroke-width="1.5" stroke-linecap="square" stroke-linejoin="miter"><path d="M4 12h16m-6-6 6 6-6 6"/></symbol>
<symbol id="arrow-up-right" viewBox="0 0 24 24" fill="none" stroke="currentColor" stroke-width="1.5" stroke-linecap="square" stroke-linejoin="miter"><path d="M6 18 18 6M8 6h10v10"/></symbol>
<symbol id="arrow-up" viewBox="0 0 24 24" fill="none" stroke="currentColor" stroke-width="1.5" stroke-linecap="square" stroke-linejoin="miter"><path d="M12 20V4m-6 6 6-6 6 6"/></symbol>
<symbol id="article" viewBox="0 0 24 24" fill="none" stroke="currentColor" stroke-width="1.5" stroke-linecap="square" stroke-linejoin="miter"><path d="M5 3h10l4 4v14H5zm10 0v4h4M8 11h8m-8 3h8m-8 3h5"/></symbol>
<symbol id="branch" viewBox="0 0 24 24" fill="none" stroke="currentColor" stroke-width="1.5" stroke-linecap="square" stroke-linejoin="miter"><path d="M4 6a2 2 0 1 0 4 0 2 2 0 1 0-4 0Zm0 12a2 2 0 1 0 4 0 2 2 0 1 0-4 0ZM16 6a2 2 0 1 0 4 0 2 2 0 1 0-4 0ZM6 8v8m12-8v2a3 3 0 0 1-3 3H9a3 3 0 0 0-3 3"/></symbol>
<symbol id="check" viewBox="0 0 24 24" fill="none" stroke="currentColor" stroke-width="1.5" stroke-linecap="square" stroke-linejoin="miter"><path d="m4 12 5 5L20 6"/></symbol>
<symbol id="chevron-right" viewBox="0 0 24 24" fill="none" stroke="currentColor" stroke-width="1.5" stroke-linecap="square" stroke-linejoin="miter"><path d="m9 5 7 7-7 7"/></symbol>
<symbol id="close" viewBox="0 0 24 24" fill="none" stroke="currentColor" stroke-width="1.5" stroke-linecap="square" stroke-linejoin="miter"><path d="m6 6 12 12m0-12L6 18"/></symbol>
<symbol id="code" viewBox="0 0 24 24" fill="none" stroke="currentColor" stroke-width="1.5" stroke-linecap="square" stroke-linejoin="miter"><path d="m8 7-5 5 5 5m8-10 5 5-5 5M14 4l-4 16"/></symbol>
<symbol id="copy" viewBox="0 0 24 24" fill="none" stroke="currentColor" stroke-width="1.5" stroke-linecap="square" stroke-linejoin="miter"><path d="M8 8h12v12H8zm8 0V4H4v12h4"/></symbol>
<symbol id="download" viewBox="0 0 24 24" fill="none" stroke="currentColor" stroke-width="1.5" stroke-linecap="square" stroke-linejoin="miter"><path d="M12 4v11m-5-5 5 5 5-5M4 20h16"/></symbol>
<symbol id="edit" viewBox="0 0 24 24" fill="none" stroke="currentColor" stroke-width="1.5" stroke-linecap="square" stroke-linejoin="miter"><path d="M4 20v-4L15 5l4 4L8 20zm8-12 4 4"/></symbol>
<symbol id="external-link" viewBox="0 0 24 24" fill="none" stroke="currentColor" stroke-width="1.5" stroke-linecap="square" stroke-linejoin="miter"><path d="M19 13v7H4V5h7m3-1h6v6m0-6-9 9"/></symbol>
<symbol id="info" viewBox="0 0 24 24" fill="none" stroke="currentColor" stroke-width="1.5" stroke-linecap="square" stroke-linejoin="miter"><path d="M3 12a9 9 0 1 0 18 0 9 9 0 1 0-18 0Zm9-1v6m0-9.5h.01"/></symbol>
<symbol id="link" viewBox="0 0 24 24" fill="none" stroke="currentColor" stroke-width="1.5" stroke-linecap="square" stroke-linejoin="miter"><path d="M9 8H7a4 4 0 0 0 0 8h2m6-8h2a4 4 0 0 1 0 8h-2m-7-4h8"/></symbol>
<symbol id="menu" viewBox="0 0 24 24" fill="none" stroke="currentColor" stroke-width="1.5" stroke-linecap="square" stroke-linejoin="miter"><path d="M4 6h16M4 12h16M4 18h16"/></symbol>
<symbol id="plus" viewBox="0 0 24 24" fill="none" stroke="currentColor" stroke-width="1.5" stroke-linecap="square" stroke-linejoin="miter"><path d="M12 5v14m-7-7h14"/></symbol>
<symbol id="post" viewBox="0 0 24 24" fill="none" stroke="currentColor" stroke-width="1.5" stroke-linecap="square" stroke-linejoin="miter"><path d="M4 3h16v18H4zm3 3h10v6H7zm0 9h10M7 18h6"/></symbol>
<symbol id="search" viewBox="0 0 24 24" fill="none" stroke="currentColor" stroke-width="1.5" stroke-linecap="square" stroke-linejoin="miter"><path d="M4 11a7 7 0 1 0 14 0 7 7 0 1 0-14 0Zm12 5 5 5"/></symbol>
<symbol id="settings" viewBox="0 0 24 24" fill="none" stroke="currentColor" stroke-width="1.5" stroke-linecap="square" stroke-linejoin="miter"><path d="M4 7h10m4 0h2M4 17h2m4 0h10M14 7a2 2 0 1 0 4 0 2 2 0 1 0-4 0ZM6 17a2 2 0 1 0 4 0 2 2 0 1 0-4 0Z"/></symbol>
<symbol id="tag" viewBox="0 0 24 24" fill="none" stroke="currentColor" stroke-width="1.5" stroke-linecap="square" stroke-linejoin="miter"><path d="M3 3h8l10 10-8 8L3 11zm4.5 4.5h.01"/></symbol>
<symbol id="user" viewBox="0 0 24 24" fill="none" stroke="currentColor" stroke-width="1.5" stroke-linecap="square" stroke-linejoin="miter"><path d="M8 8a4 4 0 1 0 8 0 4 4 0 1 0-8 0ZM4 21v-2a4 4 0 0 1 4-4h8a4 4 0 0 1 4 4v2"/></symbol>
</svg>
